<?xml version="1.0" standalone="no"?>
<!DOCTYPE svg PUBLIC "-//W3C//DTD SVG 20010904//EN"
 "http://www.w3.org/TR/2001/REC-SVG-20010904/DTD/svg10.dtd">
<svg version="1.0" xmlns="http://www.w3.org/2000/svg"
 width="630.000000pt" height="630.000000pt" viewBox="0 0 630.000000 630.000000"
 preserveAspectRatio="xMidYMid meet">

<g transform="translate(0.000000,630.000000) scale(0.100000,-0.100000)"
fill="#000000" stroke="none">
<path d="M4601 5053 c13 -15 26 -30 29 -33 20 -20 70 -91 70 -99 0 -5 4 -11 9
-13 12 -5 94 -127 136 -205 21 -37 42 -73 47 -80 5 -7 6 -18 2 -24 -4 -7 -3
-9 4 -5 10 6 28 -30 24 -46 -1 -5 2 -8 8 -8 6 0 10 -8 10 -17 0 -10 9 -29 20
-43 12 -16 17 -35 14 -55 -3 -21 -2 -24 4 -12 6 14 13 3 30 -49 l23 -68 -78
-78 c-43 -43 -84 -78 -93 -78 -8 0 -21 -9 -28 -20 -7 -11 -19 -20 -26 -20 -8
0 -22 -7 -30 -16 -15 -14 -16 -12 -16 20 0 20 -4 36 -8 36 -17 0 -32 -25 -32
-52 0 -25 -4 -28 -31 -28 l-30 0 7 -95 7 -94 -28 -11 c-48 -18 -55 -37 -53
-134 2 -73 -1 -90 -15 -101 -9 -7 -17 -20 -17 -29 0 -12 -10 -16 -40 -16 l-40
0 0 -40 c0 -33 -3 -40 -19 -40 -11 0 -22 -6 -25 -12 -5 -10 -7 -10 -12 0 -11
23 -23 12 -26 -25 -3 -33 -7 -38 -31 -41 -15 -2 -33 -12 -40 -23 -6 -10 -18
-19 -26 -19 -16 0 -61 -46 -61 -62 0 -6 -3 -8 -7 -5 -11 12 -33 -14 -33 -39 0
-13 -10 -45 -22 -71 -12 -26 -22 -62 -22 -80 0 -20 -3 -28 -8 -20 -6 9 -8 8
-8 -3 0 -15 -62 -141 -112 -232 -15 -25 -26 -48 -25 -50 1 -2 -6 6 -15 17 -9
11 -18 18 -20 15 -3 -3 -22 -45 -43 -93 -21 -49 -47 -98 -57 -109 -10 -11 -15
-26 -11 -32 3 -6 3 -8 -2 -4 -4 4 -24 -11 -44 -32 l-36 -40 -135 -11 c-74 -6
-137 -13 -138 -14 -2 -2 27 -34 65 -71 37 -36 61 -61 51 -55 -9 7 -18 8 -20 3
-1 -5 -41 -35 -88 -67 -99 -67 -248 -140 -370 -180 -47 -15 -101 -34 -121 -41
-21 -7 -88 -20 -150 -29 -63 -8 -126 -17 -141 -20 -31 -5 -27 -12 -53 115 -9
41 -18 83 -21 93 -3 11 5 27 23 45 141 134 213 205 210 208 -1 2 -74 9 -160
17 -87 8 -162 18 -166 23 -4 5 -37 73 -72 152 -35 78 -66 142 -69 142 -3 0
-35 -69 -72 -153 l-66 -152 -168 -14 -169 -14 123 -116 c67 -64 122 -124 122
-133 0 -13 -23 -117 -44 -203 -2 -5 -6 -28 -11 -50 -4 -22 -12 -45 -17 -52 -7
-9 -4 -11 13 -8 12 3 25 8 28 12 3 5 24 18 47 30 29 15 44 19 55 11 11 -8 11
-9 -3 -5 -9 3 -22 0 -28 -8 -10 -12 -8 -13 9 -10 35 7 43 15 30 31 -10 12 -9
13 6 8 12 -5 16 -4 11 4 -4 7 8 19 31 30 21 10 54 28 73 40 l35 21 60 -36 c33
-20 83 -49 110 -64 29 -16 49 -35 49 -44 -2 -18 12 -20 20 -2 3 6 4 3 3 -7 -1
-10 4 -21 12 -24 10 -3 12 0 7 14 -5 15 -4 16 5 7 14 -14 4 -33 -17 -33 -8 0
-13 -4 -10 -9 3 -5 0 -11 -7 -14 -8 -3 -14 1 -14 9 0 8 4 14 9 14 4 0 8 5 8
10 0 11 -42 13 -77 4 -14 -4 -23 -14 -23 -25 0 -12 -7 -19 -20 -19 -26 0 -60
-34 -60 -61 0 -20 -4 -21 -77 -17 -43 3 -61 3 -40 1 44 -5 48 -21 12 -58 -24
-23 -33 -25 -120 -25 -88 0 -94 1 -97 21 -3 20 -6 19 -41 -15 -42 -39 -70 -45
-99 -19 -11 9 -18 11 -18 5 0 -7 -16 -12 -40 -12 -22 0 -40 5 -40 10 0 19 -38
10 -43 -10 -3 -11 -12 -20 -21 -20 -13 0 -16 -12 -16 -60 0 -47 -3 -60 -15
-60 -9 0 -32 -18 -52 -40 -21 -22 -44 -40 -52 -40 -8 0 -23 -7 -33 -17 -15
-13 -18 -14 -18 -2 0 11 -13 15 -54 15 -42 -1 -50 -3 -38 -12 8 -6 23 -9 33
-7 19 5 59 -13 59 -26 0 -5 -10 -11 -22 -15 -17 -4 -39 5 -78 32 -30 20 -57
40 -60 43 -3 4 -19 15 -36 25 -45 27 -103 77 -207 179 -51 50 -101 97 -112
105 -17 14 -18 14 -7 -6 6 -12 38 -57 70 -100 524 -702 1383 -1064 2252 -949
702 93 1337 500 1715 1100 71 113 183 340 229 465 168 462 188 988 54 1465
-112 402 -321 758 -618 1056 -131 132 -329 291 -249 202z m456 -860 c-3 -10
-5 -4 -5 12 0 17 2 24 5 18 2 -7 2 -21 0 -30z m27 -39 c3 -8 2 -12 -4 -9 -6 3
-10 1 -10 -6 0 -7 -3 -10 -6 -6 -7 6 2 37 10 37 2 0 7 -7 10 -16z m-846 -915
c-3 -8 -7 -3 -11 10 -4 17 -3 21 5 13 5 -5 8 -16 6 -23z m-583 -879 c3 -5 1
-10 -4 -10 -6 0 -11 5 -11 10 0 6 2 10 4 10 3 0 8 -4 11 -10z m-1899 -947
c-10 -10 -19 5 -10 18 6 11 8 11 12 0 2 -7 1 -15 -2 -18z m-64 0 c-6 -3 -9
-10 -5 -16 4 -7 -2 -5 -13 3 -10 8 -20 15 -22 16 -2 1 10 1 25 1 15 0 22 -2
15 -4z m32 -15 c-4 -6 1 -17 11 -25 11 -7 15 -13 9 -13 -29 1 -52 50 -23 50 6
0 7 -5 3 -12z"/>
<path d="M2346 4226 l-67 -154 -37 -6 c-20 -3 -77 -8 -127 -11 -49 -3 -108 -9
-130 -12 l-39 -5 123 -117 123 -116 -35 -157 c-18 -87 -30 -158 -27 -158 8 0
59 27 191 101 48 27 91 49 96 49 6 0 70 -34 143 -75 73 -41 137 -75 142 -75 6
0 8 9 5 20 -3 11 -18 83 -33 160 l-29 139 119 112 c81 77 113 114 104 119 -7
4 -78 13 -158 19 -80 7 -148 15 -152 19 -4 4 -37 72 -73 152 -37 80 -68 146
-69 147 -1 2 -33 -67 -70 -151z"/>
<path d="M4962 4360 c0 -14 3 -34 7 -45 8 -19 8 -19 19 0 11 20 11 20 12 0 1
-11 4 -15 6 -9 3 6 0 22 -5 35 -5 13 -10 18 -10 12 -1 -22 -19 -14 -24 10 -4
20 -4 20 -5 -3z"/>
<path d="M3939 4275 c-18 -38 -49 -108 -69 -155 l-36 -85 -164 -16 c-91 -9
-166 -17 -167 -18 -2 0 53 -53 120 -115 l123 -115 -33 -157 c-19 -86 -32 -158
-29 -161 2 -2 64 29 138 71 73 41 138 76 144 78 11 3 117 -53 232 -124 35 -21
68 -35 74 -31 7 4 9 0 5 -10 -4 -11 -2 -14 8 -11 15 6 9 34 -7 34 -6 0 -8 7
-4 15 3 8 0 15 -6 15 -6 0 -9 3 -5 6 3 3 1 18 -4 33 -6 14 -21 76 -35 136 -24
109 -24 110 -4 125 11 8 47 41 80 72 33 31 60 55 60 52 0 -2 18 16 41 41 22
24 39 47 37 51 -2 4 -16 9 -33 10 -192 10 -278 19 -289 28 -7 6 -39 70 -71
141 -31 72 -61 137 -66 145 -6 11 -16 -4 -40 -55z"/>
<path d="M4461 3964 c0 -11 3 -14 6 -6 3 7 2 16 -1 19 -3 4 -6 -2 -5 -13z"/>
<path d="M4301 3555 c-1 -17 -6 -36 -12 -42 -7 -7 -7 -13 0 -17 11 -7 26 55
18 76 -3 7 -6 -1 -6 -17z"/>
<path d="M4225 3440 c-3 -5 -1 -10 4 -10 6 0 11 5 11 10 0 6 -2 10 -4 10 -3 0
-8 -4 -11 -10z"/>
<path d="M2500 2040 c0 -5 7 -10 16 -10 8 0 12 5 9 10 -3 6 -10 10 -16 10 -5
0 -9 -4 -9 -10z"/>
<path d="M2540 2009 c-24 -7 -24 -7 5 -7 17 0 39 -3 50 -7 24 -10 18 -1 -10
12 -11 5 -31 6 -45 2z"/>
<path d="M2091 1984 c0 -11 3 -14 6 -6 3 7 2 16 -1 19 -3 4 -6 -2 -5 -13z"/>
<path d="M1336 1648 c3 -5 10 -6 15 -3 13 9 11 12 -6 12 -8 0 -12 -4 -9 -9z"/>
<path d="M1680 1569 c0 -5 5 -7 10 -4 6 3 10 8 10 11 0 2 -4 4 -10 4 -5 0 -10
-5 -10 -11z"/>
<path d="M1498 1543 c7 -3 16 -2 19 1 4 3 -2 6 -13 5 -11 0 -14 -3 -6 -6z"/>
<path d="M1610 1450 c19 -13 30 -13 30 0 0 6 -10 10 -22 10 -19 0 -20 -2 -8
-10z"/>
</g>
</svg>
